<svg width="80" height="80" viewBox="0 0 80 80" fill="none" xmlns="http://www.w3.org/2000/svg">
<rect width="80" height="80" rx="40" fill="white" fill-opacity="0.3"/>
<path d="M61.2535 31.254L40.4642 20.6247C40.1754 20.477 39.8568 20.4 39.5339 20.4C39.2109 20.4 38.8924 20.477 38.6036 20.6247L17.8143 31.254C17.4082 31.4687 17.0829 31.8148 16.8891 32.2382C16.7644 32.4976 16.6667 32.9397 16.6667 33.1566V45.4121C16.6906 45.9594 16.9201 46.4762 17.3074 46.8549C17.6946 47.2336 18.2098 47.4449 18.7456 47.4449C19.2814 47.4449 19.7966 47.2336 20.1839 46.8549C20.5711 46.4762 20.8006 45.9594 20.8246 45.4121V36.2986L24.9824 37.9992V48.4222C24.9824 49.2279 25.4273 49.9635 26.1321 50.3249C29.7057 52.151 33.3792 54.4044 39.5349 54.4044C45.6906 54.4044 49.3662 52.1488 52.9378 50.3249C53.6425 49.9614 54.0874 49.2279 54.0874 48.4222V37.9992L61.0976 35.1315C61.4689 34.978 61.789 34.7184 62.0197 34.3837C62.2504 34.0489 62.3818 33.6533 62.3983 33.2441C62.4147 32.835 62.3155 32.4296 62.1125 32.0767C61.9094 31.7237 61.6112 31.4381 61.2535 31.254ZM49.9296 47.1085L47.9026 48.1438C45.3028 49.4661 42.4386 50.1542 39.5349 50.1542C36.6312 50.1542 33.7671 49.4661 31.1672 48.1438L29.1403 47.1085V39.6999L38.7616 43.637C39.011 43.739 39.273 43.7858 39.5349 43.7858C39.7969 43.7858 40.0588 43.739 40.3083 43.6349L49.9296 39.6978V47.1085ZM39.5349 39.3704L23.8161 32.9397L39.5349 24.9062L55.2537 32.9397L39.5349 39.3704ZM18.7456 50.1633C18.1943 50.1633 17.6655 50.3873 17.2756 50.786C16.8857 51.1846 16.6667 51.7253 16.6667 52.2892V56.5408C16.6667 57.1046 16.8857 57.6454 17.2756 58.044C17.6655 58.4427 18.1943 58.6667 18.7456 58.6667C19.297 58.6667 19.8258 58.4427 20.2157 58.044C20.6055 57.6454 20.8246 57.1046 20.8246 56.5408V52.2892C20.8246 51.7253 20.6055 51.1846 20.2157 50.786C19.8258 50.3873 19.297 50.1633 18.7456 50.1633Z" fill="white"/>
<path d="M40 5C33.0777 5 26.3108 7.05271 20.5551 10.8986C14.7993 14.7444 10.3133 20.2107 7.66423 26.6061C5.01517 33.0015 4.32205 40.0388 5.67253 46.8282C7.02301 53.6175 10.3564 59.8539 15.2513 64.7487C20.1461 69.6436 26.3825 72.977 33.1719 74.3275C39.9612 75.678 46.9985 74.9848 53.3939 72.3358C59.7893 69.6867 65.2556 65.2007 69.1014 59.445C72.9473 53.6892 75 46.9223 75 40C75 30.7174 71.3125 21.815 64.7487 15.2513C58.185 8.68749 49.2826 5 40 5ZM40 69.1667C34.2314 69.1667 28.5923 67.4561 23.7959 64.2512C18.9994 61.0463 15.2611 56.4911 13.0535 51.1616C10.846 45.8321 10.2684 39.9676 11.3938 34.3099C12.5192 28.6521 15.297 23.4551 19.3761 19.376C23.4551 15.297 28.6521 12.5192 34.3099 11.3938C39.9677 10.2684 45.8321 10.846 51.1616 13.0535C56.4911 15.2611 61.0463 18.9994 64.2512 23.7959C67.4561 28.5923 69.1667 34.2314 69.1667 40C69.1667 47.7355 66.0938 55.1541 60.624 60.6239C55.1541 66.0938 47.7355 69.1667 40 69.1667Z" fill="white"/>
</svg>
