<svg width="1120" height="332" viewBox="0 0 1120 332" fill="none" xmlns="http://www.w3.org/2000/svg">
<g clip-path="url(#clip0_40_999)">
<path d="M1120 0H0V332H1120V0Z" fill="#5BB75B"/>
<path d="M27.6377 278.118C87.3497 266.929 126.685 209.452 115.496 149.74C104.307 90.0282 46.8302 50.6927 -12.8818 61.8818C-72.5938 73.071 -111.929 130.548 -100.74 190.26C-89.5511 249.972 -32.0743 289.307 27.6377 278.118Z" fill="url(#paint0_linear_40_999)" fill-opacity="0.7"/>
<path d="M726.378 87C756.754 87 781.378 62.3757 781.378 32C781.378 1.62434 756.754 -23 726.378 -23C696.002 -23 671.378 1.62434 671.378 32C671.378 62.3757 696.002 87 726.378 87Z" fill="url(#paint1_linear_40_999)" fill-opacity="0.5"/>
<path d="M1070 424C1120.81 424 1162 382.81 1162 332C1162 281.19 1120.81 240 1070 240C1019.19 240 978 281.19 978 332C978 382.81 1019.19 424 1070 424Z" fill="url(#paint2_linear_40_999)" fill-opacity="0.5"/>
<path d="M489.975 249.315C536.354 234.228 561.864 184.838 546.953 138.999C532.041 93.1598 482.356 68.2303 435.977 83.3172C389.598 98.4041 364.088 147.794 378.999 193.633C393.91 239.472 443.596 264.402 489.975 249.315Z" fill="url(#paint3_linear_40_999)" fill-opacity="0.6"/>
<path d="M1138.38 97C1168.75 97 1193.38 72.3757 1193.38 42C1193.38 11.6243 1168.75 -13 1138.38 -13C1108 -13 1083.38 11.6243 1083.38 42C1083.38 72.3757 1108 97 1138.38 97Z" fill="url(#paint4_linear_40_999)" fill-opacity="0.6"/>
</g>
<defs>
<linearGradient id="paint0_linear_40_999" x1="-43.7927" y1="168.397" x2="103.273" y2="138.804" gradientUnits="userSpaceOnUse">
<stop stop-color="#84D684"/>
<stop offset="1" stop-color="#5AB55A"/>
</linearGradient>
<linearGradient id="paint1_linear_40_999" x1="726" y1="20" x2="726.378" y2="87" gradientUnits="userSpaceOnUse">
<stop stop-color="#84D684"/>
<stop offset="1" stop-color="#69CA69"/>
</linearGradient>
<linearGradient id="paint2_linear_40_999" x1="1070" y1="347" x2="1070" y2="424" gradientUnits="userSpaceOnUse">
<stop stop-color="#69CA69"/>
<stop offset="1" stop-color="#84D684"/>
</linearGradient>
<linearGradient id="paint3_linear_40_999" x1="422.105" y1="170.433" x2="536.115" y2="131.638" gradientUnits="userSpaceOnUse">
<stop stop-color="#84D684"/>
<stop offset="1" stop-color="#5AB55A"/>
</linearGradient>
<linearGradient id="paint4_linear_40_999" x1="1138" y1="30" x2="1138.38" y2="97" gradientUnits="userSpaceOnUse">
<stop stop-color="#84D684"/>
<stop offset="1" stop-color="#69CA69"/>
</linearGradient>
<clipPath id="clip0_40_999">
<rect width="1120" height="332" rx="20" fill="white"/>
</clipPath>
</defs>
</svg>
