<svg width="80" height="80" viewBox="0 0 80 80" fill="none" xmlns="http://www.w3.org/2000/svg">
<rect width="80" height="80" rx="40" fill="white" fill-opacity="0.3"/>
<path d="M40 5C33.0777 5 26.3108 7.05271 20.5551 10.8986C14.7993 14.7444 10.3133 20.2107 7.66423 26.6061C5.01517 33.0015 4.32205 40.0388 5.67253 46.8282C7.02301 53.6175 10.3564 59.8539 15.2513 64.7487C20.1461 69.6436 26.3825 72.977 33.1719 74.3275C39.9612 75.678 46.9985 74.9848 53.3939 72.3358C59.7893 69.6867 65.2556 65.2007 69.1014 59.445C72.9473 53.6892 75 46.9223 75 40C75 30.7174 71.3125 21.815 64.7487 15.2513C58.185 8.68749 49.2826 5 40 5ZM40 69.1667C34.2314 69.1667 28.5923 67.4561 23.7959 64.2512C18.9994 61.0463 15.2611 56.4911 13.0535 51.1616C10.846 45.8321 10.2684 39.9676 11.3938 34.3099C12.5192 28.6521 15.297 23.4551 19.3761 19.376C23.4551 15.297 28.6521 12.5192 34.3099 11.3938C39.9677 10.2684 45.8321 10.846 51.1616 13.0535C56.4911 15.2611 61.0463 18.9994 64.2512 23.7959C67.4561 28.5923 69.1667 34.2314 69.1667 40C69.1667 47.7355 66.0938 55.1541 60.624 60.6239C55.1541 66.0938 47.7355 69.1667 40 69.1667Z" fill="white"/>
<path d="M39.6384 32.5712C38.7617 32.5712 37.9209 32.9195 37.301 33.5394C36.6811 34.1593 36.3328 35.0001 36.3328 35.8768V58.3545C36.3328 59.2312 36.6811 60.072 37.301 60.6919C37.9209 61.3118 38.7617 61.6601 39.6384 61.6601C40.515 61.6601 41.3558 61.3118 41.9757 60.6919C42.5956 60.072 42.9439 59.2312 42.9439 58.3545V35.8768C42.9439 35.0001 42.5956 34.1593 41.9757 33.5394C41.3558 32.9195 40.515 32.5712 39.6384 32.5712ZM39.6384 19.0184C38.7435 19.0521 37.8955 19.4271 37.2684 20.0664C36.6414 20.7057 36.2829 21.5609 36.2667 22.4562V22.9851C36.2651 23.4164 36.3534 23.8433 36.5258 24.2386C36.6982 24.6339 36.951 24.989 37.2682 25.2813C37.5853 25.5736 37.9599 25.7966 38.3679 25.9362C38.776 26.0759 39.2086 26.129 39.6384 26.0923C40.5046 26.0596 41.3265 25.7008 41.9395 25.0879C42.5524 24.4749 42.9112 23.653 42.9439 22.7868V21.9934C42.9465 21.5733 42.8601 21.1574 42.6904 20.7731C42.5206 20.3888 42.2714 20.0448 41.9591 19.7637C41.6469 19.4826 41.2786 19.2709 40.8786 19.1425C40.4786 19.014 40.0559 18.9717 39.6384 19.0184Z" fill="white"/>
</svg>
