<svg width="80" height="80" viewBox="0 0 80 80" fill="none" xmlns="http://www.w3.org/2000/svg">
<rect width="80" height="80" rx="40" fill="white" fill-opacity="0.3"/>
<path d="M40 75C33.0777 75 26.3108 72.9473 20.5551 69.1014C14.7993 65.2556 10.3133 59.7893 7.66423 53.3939C5.01516 46.9985 4.32205 39.9612 5.67253 33.1718C7.02301 26.3825 10.3564 20.1461 15.2513 15.2513C20.1461 10.3564 26.3825 7.02301 33.1718 5.67253C39.9612 4.32205 46.9985 5.01516 53.3939 7.66423C59.7893 10.3133 65.2556 14.7993 69.1014 20.5551C72.9473 26.3108 75 33.0777 75 40C75 49.2826 71.3125 58.185 64.7487 64.7487C58.185 71.3125 49.2826 75 40 75ZM40 10.3846C34.1426 10.3846 28.4168 12.1215 23.5466 15.3757C18.6764 18.6299 14.8805 23.2552 12.639 28.6667C10.3974 34.0782 9.81096 40.0329 10.9537 45.7777C12.0964 51.5225 14.917 56.7995 19.0588 60.9412C23.2006 65.083 28.4775 67.9036 34.2223 69.0463C39.9672 70.189 45.9218 69.6026 51.3333 67.361C56.7448 65.1195 61.3701 61.3237 64.6243 56.4534C67.8785 51.5832 69.6154 45.8574 69.6154 40C69.6154 32.1455 66.4952 24.6127 60.9412 19.0588C55.3873 13.5048 47.8545 10.3846 40 10.3846Z" fill="white"/>
<path d="M40 42.6923C37.3376 42.6923 34.7349 41.9028 32.5212 40.4236C30.3074 38.9445 28.582 36.8421 27.5632 34.3823C26.5443 31.9225 26.2777 29.2158 26.7971 26.6046C27.3165 23.9933 28.5986 21.5947 30.4813 19.712C32.3639 17.8294 34.7625 16.5473 37.3738 16.0279C39.9851 15.5085 42.6917 15.7751 45.1515 16.7939C47.6113 17.8128 49.7137 19.5382 51.1929 21.752C52.672 23.9657 53.4615 26.5683 53.4615 29.2308C53.4615 32.801 52.0433 36.225 49.5187 38.7495C46.9942 41.2741 43.5702 42.6923 40 42.6923ZM40 21.1539C38.4025 21.1539 36.8409 21.6276 35.5127 22.5151C34.1845 23.4026 33.1492 24.664 32.5379 26.1399C31.9266 27.6157 31.7666 29.2397 32.0783 30.8065C32.3899 32.3733 33.1592 33.8125 34.2887 34.942C35.4183 36.0716 36.8575 36.8409 38.4243 37.1525C39.991 37.4642 41.615 37.3042 43.0909 36.6929C44.5668 36.0816 45.8282 35.0463 46.7157 33.7181C47.6032 32.3898 48.0769 30.8282 48.0769 29.2308C48.0769 27.0886 47.226 25.0343 45.7112 23.5195C44.1965 22.0048 42.1421 21.1539 40 21.1539Z" fill="white"/>
<path d="M65.7115 61.5385C65.3378 61.541 64.9677 61.4657 64.6247 61.3174C64.2817 61.1691 63.9733 60.9509 63.7192 60.6769C60.8615 57.5599 57.388 55.0698 53.5184 53.3644C49.6487 51.659 45.4672 50.7753 41.2385 50.7692H38.7615C30.879 50.7522 23.2993 53.8034 17.6269 59.2769C17.1028 59.7094 16.4346 59.9277 15.7563 59.888C15.078 59.8484 14.4397 59.5537 13.9696 59.0632C13.4994 58.5726 13.2322 57.9224 13.2214 57.243C13.2107 56.5636 13.4572 55.9052 13.9115 55.4C20.5774 48.9572 29.491 45.3647 38.7615 45.3846H41.2385C46.2091 45.3959 51.1236 46.4349 55.6734 48.4364C60.2232 50.438 64.31 53.3588 67.6769 57.0154C68.0327 57.399 68.2689 57.8778 68.3569 58.3935C68.4448 58.9092 68.3806 59.4393 68.1722 59.9191C67.9637 60.3989 67.6199 60.8076 67.183 61.0952C66.746 61.3828 66.2347 61.5368 65.7115 61.5385Z" fill="white"/>
</svg>
